<svg height="2126" width="720" xmlns="http://www.w3.org/2000/svg">
<rect height="2126" fill="#555" width="720"></rect>
<text fill="#7f7" font-family="Courier New" font-size="12" xml:space="preserve">
<tspan x="10" y="26"></tspan>
<tspan x="10" y="42">&gt; npmdoc-react-scripts@0.0.1 test /home/travis/build/npmdoc/node-npmdoc-react-scripts</tspan>
<tspan x="10" y="58">&gt; (set -e; export PORT=$(utility2 shServerPortRandom); utility2 test test.js)</tspan>
<tspan x="10" y="74"></tspan>
<tspan x="10" y="90"></tspan>
<tspan x="10" y="106">[MODE_BUILD=npmTest] - 2017-04-04T07:59:10Z - npm-testing /home/travis/build/npmdoc/node-npmdoc-\</tspan>
<tspan x="10" y="122">react-scripts</tspan>
<tspan x="10" y="138"></tspan>
<tspan x="10" y="154"></tspan>
<tspan x="10" y="170">covering $ /home/travis/.nvm/versions/node/v6.10.1/bin/node /home/travis/build/npmdoc/node-npmdo\</tspan>
<tspan x="10" y="186">c-react-scripts/test.js</tspan>
<tspan x="10" y="202">merging file:///home/travis/build/npmdoc/node-npmdoc-react-scripts/tmp/build/test-report.json to\</tspan>
<tspan x="10" y="218"> test-report</tspan>
<tspan x="10" y="234">&gt; server listening on http-port 61793</tspan>
<tspan x="10" y="250">Are you sure you want to eject? This action is permanent. [y/N]</tspan>
<tspan x="10" y="266">Could not find a required file.</tspan>
<tspan x="10" y="282">  Name: index.html</tspan>
<tspan x="10" y="298">  Searched in: /home/travis/build/npmdoc/node-npmdoc-react-scripts/public</tspan>
<tspan x="10" y="314">created apidoc file:///home/travis/build/npmdoc/node-npmdoc-react-scripts/tmp/build/apidoc.html</tspan>
<tspan x="10" y="330"></tspan>
<tspan x="10" y="346"></tspan>
<tspan x="10" y="362">browserTest - created electron entry-page /home/travis/build/npmdoc/node-npmdoc-react-scripts/tm\</tspan>
<tspan x="10" y="378">p/electron.15b37f987d80.82321b83ed8b7.html</tspan>
<tspan x="10" y="394"></tspan>
<tspan x="10" y="410">[node test-case 1 of 6 passed] - testCase_buildLib_default</tspan>
<tspan x="10" y="426">[node test-case 2 of 6 passed] - testCase_buildReadme_default</tspan>
<tspan x="10" y="442">[node test-case 3 of 6 passed] - testCase_buildTest_default</tspan>
<tspan x="10" y="458"></tspan>
<tspan x="10" y="474">browserTest - created electron entry-page /home/travis/build/npmdoc/node-npmdoc-react-scripts/tm\</tspan>
<tspan x="10" y="490">p/electron.15b37f9881a0.e26f3c055fe45.html</tspan>
<tspan x="10" y="506"></tspan>
<tspan x="10" y="522">Something is already running on port 61793.</tspan>
<tspan x="10" y="538">Xlib:  extension "RANDR" missing on display ":99.0".</tspan>
<tspan x="10" y="554">Xlib:  extension "RANDR" missing on display ":99.0".</tspan>
<tspan x="10" y="570">merging file:///home/travis/build/npmdoc/node-npmdoc-react-scripts/tmp/build/test-report.json to\</tspan>
<tspan x="10" y="586"> test-report</tspan>
<tspan x="10" y="602">Xlib:  extension "RANDR" missing on display ":99.0".</tspan>
<tspan x="10" y="618">[4807:0404/075912:WARNING:audio_manager.cc(314)] Multiple instances of AudioManager detected</tspan>
<tspan x="10" y="634">[4807:0404/075912:WARNING:audio_manager.cc(275)] Multiple instances of AudioManager detected</tspan>
<tspan x="10" y="650">[4836:0404/075912:ERROR:sandbox_linux.cc(343)] InitializeSandbox() called with multiple threads \</tspan>
<tspan x="10" y="666">in process gpu-process. </tspan>
<tspan x="10" y="682">&gt; [4807:0404/075912:ERROR:browser_gpu_channel_host_factory.cc(131)] Failed to create channel.</tspan>
<tspan x="10" y="698">server listening on http-port 43425</tspan>
<tspan x="10" y="714">merging file:///home/travis/build/npmdoc/node-npmdoc-react-scripts/tmp/build/test-report.json to\</tspan>
<tspan x="10" y="730"> test-report</tspan>
<tspan x="10" y="746"></tspan>
<tspan x="10" y="762">browserTest - opened url /home/travis/build/npmdoc/node-npmdoc-react-scripts/tmp/build/apidoc.ht\</tspan>
<tspan x="10" y="778">ml</tspan>
<tspan x="10" y="794"></tspan>
<tspan x="10" y="810">Xlib:  extension "RANDR" missing on display ":99.0".</tspan>
<tspan x="10" y="826">[4811:0404/075913:WARNING:audio_manager.cc(314)] Multiple instances of AudioManager detected</tspan>
<tspan x="10" y="842">[4811:0404/075913:WARNING:audio_manager.cc(275)] Multiple instances of AudioManager detected</tspan>
<tspan x="10" y="858">[4879:0404/075913:ERROR:sandbox_linux.cc(343)] InitializeSandbox() called with multiple threads \</tspan>
<tspan x="10" y="874">in process gpu-process. </tspan>
<tspan x="10" y="890">[4811:0404/075913:ERROR:browser_gpu_channel_host_factory.cc(131)] Failed to create channel.</tspan>
<tspan x="10" y="906"></tspan>
<tspan x="10" y="922">browserTest - opened url http://127.0.0.1:61793?modeTest=1</tspan>
<tspan x="10" y="938"></tspan>
<tspan x="10" y="954">[4811:0404/075915:INFO:CONSOLE(245)] "----------|-----------|-----------|-----------|-----------\</tspan>
<tspan x="10" y="970">|</tspan>
<tspan x="10" y="986">File      |   % Stmts |% Branches |   % Funcs |   % Lines |</tspan>
<tspan x="10" y="1002">----------|-----------|-----------|-----------|-----------|</tspan>
<tspan x="10" y="1018">----------|-----------|-----------|-----------|-----------|</tspan>
<tspan x="10" y="1034">All files |       100 |       100 |       100 |       100 |</tspan>
<tspan x="10" y="1050">----------|-----------|-----------|-----------|-----------|</tspan>
<tspan x="10" y="1066">", source: file:///home/travis/build/npmdoc/node-npmdoc-react-scripts/tmp/electron.15b37f9881a0.\</tspan>
<tspan x="10" y="1082">e26f3c055fe45.html (245)</tspan>
<tspan x="10" y="1098">[4811:0404/075915:INFO:CONSOLE(245)] "created coverage file:///tmp/build/coverage.html/index.htm\</tspan>
<tspan x="10" y="1114">l", source: file:///home/travis/build/npmdoc/node-npmdoc-react-scripts/tmp/electron.15b37f9881a0\</tspan>
<tspan x="10" y="1130">.e26f3c055fe45.html (245)</tspan>
<tspan x="10" y="1146">[node test-case 4 of 6 passed] - testCase_buildApp_default</tspan>
<tspan x="10" y="1162"></tspan>
<tspan x="10" y="1178">browserTest - created screenCapture file:///home/travis/build/npmdoc/node-npmdoc-react-scripts/t\</tspan>
<tspan x="10" y="1194">mp/build/screenCapture.npmTest.browser._2Fhome_2Ftravis_2Fbuild_2Fnpmdoc_2Fnode-npmdoc-react-scr\</tspan>
<tspan x="10" y="1210">ipts_2Ftmp_2Fbuild_2Fapidoc.html.png</tspan>
<tspan x="10" y="1226"></tspan>
<tspan x="10" y="1242">browserTest - created screenCapture file:///home/travis/build/npmdoc/node-npmdoc-react-scripts/t\</tspan>
<tspan x="10" y="1258">mp/build/screenCapture.npmTest.browser._2Fhome_2Ftravis_2Fbuild_2Fnpmdoc_2Fnode-npmdoc-react-scr\</tspan>
<tspan x="10" y="1274">ipts_2Ftmp_2Fbuild_2Fapidoc.html.html</tspan>
<tspan x="10" y="1290"></tspan>
<tspan x="10" y="1306">browserTest - exit-code 0 - /home/travis/build/npmdoc/node-npmdoc-react-scripts/tmp/build/apidoc\</tspan>
<tspan x="10" y="1322">.html</tspan>
<tspan x="10" y="1338"></tspan>
<tspan x="10" y="1354">[node test-case 5 of 6 passed] - testCase_buildApidoc_default</tspan>
<tspan x="10" y="1370"></tspan>
<tspan x="10" y="1386">browserTest - created screenCapture file:///home/travis/build/npmdoc/node-npmdoc-react-scripts/t\</tspan>
<tspan x="10" y="1402">mp/build/screenCapture.npmTest.browser..png</tspan>
<tspan x="10" y="1418"></tspan>
<tspan x="10" y="1434">browserTest - created screenCapture file:///home/travis/build/npmdoc/node-npmdoc-react-scripts/t\</tspan>
<tspan x="10" y="1450">mp/build/screenCapture.npmTest.browser..html</tspan>
<tspan x="10" y="1466"></tspan>
<tspan x="10" y="1482">browserTest - exit-code 0 - http://127.0.0.1:61793?modeTest=1</tspan>
<tspan x="10" y="1498"></tspan>
<tspan x="10" y="1514"></tspan>
<tspan x="10" y="1530">browserTest - merged coverage from /home/travis/build/npmdoc/node-npmdoc-react-scripts/tmp/cover\</tspan>
<tspan x="10" y="1546">age.npmTest.browser.%2F.json</tspan>
<tspan x="10" y="1562"></tspan>
<tspan x="10" y="1578"></tspan>
<tspan x="10" y="1594">browserTest - merging test-report from /home/travis/build/npmdoc/node-npmdoc-react-scripts/tmp/t\</tspan>
<tspan x="10" y="1610">est-report.npmTest.browser.%2F.json</tspan>
<tspan x="10" y="1626"></tspan>
<tspan x="10" y="1642">[node test-case 6 of 6 passed] - testCase_webpage_default</tspan>
<tspan x="10" y="1658">----------------------------------|-----------|-----------|-----------|-----------|</tspan>
<tspan x="10" y="1674">File                              |   % Stmts |% Branches |   % Funcs |   % Lines |</tspan>
<tspan x="10" y="1690">----------------------------------|-----------|-----------|-----------|-----------|</tspan>
<tspan x="10" y="1706">   node-npmdoc-react-scripts/     |       100 |       100 |       100 |       100 |</tspan>
<tspan x="10" y="1722">      example.js                  |       100 |       100 |       100 |       100 |</tspan>
<tspan x="10" y="1738">      lib.npmdoc_react_scripts.js |       100 |       100 |       100 |       100 |</tspan>
<tspan x="10" y="1754">      test.js                     |       100 |       100 |       100 |       100 |</tspan>
<tspan x="10" y="1770">----------------------------------|-----------|-----------|-----------|-----------|</tspan>
<tspan x="10" y="1786">All files                         |       100 |       100 |       100 |       100 |</tspan>
<tspan x="10" y="1802">----------------------------------|-----------|-----------|-----------|-----------|</tspan>
<tspan x="10" y="1818"></tspan>
<tspan x="10" y="1834">created coverage file:///home/travis/build/npmdoc/node-npmdoc-react-scripts/tmp/build/coverage.h\</tspan>
<tspan x="10" y="1850">tml/index.html</tspan>
<tspan x="10" y="1866">merging file:///home/travis/build/npmdoc/node-npmdoc-react-scripts/tmp/build/test-report.json to\</tspan>
<tspan x="10" y="1882"> test-report</tspan>
<tspan x="10" y="1898"></tspan>
<tspan x="10" y="1914">-------------------------------------------------------</tspan>
<tspan x="10" y="1930">| test-report - buildNpmdoc - node - linux v6.10.1 - 2017-04-04T07:58:52.470Z</tspan>
<tspan x="10" y="1946">|   29325 ms            0 failed        6 passed      |</tspan>
<tspan x="10" y="1962">-------------------------------------------------------</tspan>
<tspan x="10" y="1978"></tspan>
<tspan x="10" y="1994">created test-report file:///home/travis/build/npmdoc/node-npmdoc-react-scripts/tmp/build/test-re\</tspan>
<tspan x="10" y="2010">port.html</tspan>
<tspan x="10" y="2026"></tspan>
<tspan x="10" y="2042"></tspan>
<tspan x="10" y="2058">npmTest - 0 failed tests</tspan>
<tspan x="10" y="2074"></tspan>
<tspan x="10" y="2090"></tspan>
<tspan x="10" y="2106">[MODE_BUILD=npmTest] - 2017-04-04T07:59:25Z - EXIT_CODE - 0</tspan>
</text>
</svg>
